# xmcd CD database file
#
# Track frame offsets:
#	182
#	26517
#	46935
#	70822
#	88282
#	97620
#	109850
#	127025
#	146280
#	166577
#	185120
#
# Disc length: 2822 seconds
#
# Revision: 0
# Processed by: cddbd v1.5.2PL0 Copyright (c) Steve Scherf et al.
# Submitted via: CDex 1.51
#
DISCID=8c0b040b
DTITLE=Walton Ornato - California Suite
DYEAR=1990
DGENRE=Jazz
TTITLE0=California Suite
TTITLE1=Dolphin Song
TTITLE2=Pan American
TTITLE3=Diggin'
TTITLE4=Spring Waltz (short version)
TTITLE5=Spring Waltz
TTITLE6=Showing Off
TTITLE7=Baby Bossa
TTITLE8=San Diego
TTITLE9=Graceland
TTITLE10=Golden Bridge
EXTD=YEAR: 1990
EXTT0=
EXTT1=
EXTT2=
EXTT3=
EXTT4=
EXTT5=
EXTT6=
EXTT7=
EXTT8=
EXTT9=
EXTT10=
PLAYORDER=
